<svg width="44" height="44" viewBox="0 0 44 44" fill="none" xmlns="http://www.w3.org/2000/svg">
<circle cx="22" cy="22" r="21.5" stroke="white" stroke-dasharray="5 5"/>
<path d="M22 25.333C23.105 25.333 24 24.587 24 23.667C24 22.747 23.105 22 22 22C20.895 22 20 21.254 20 20.333C20 19.413 20.895 18.667 22 18.667M22 25.333C20.895 25.333 20 24.587 20 23.667M22 25.333V26M22 18.667V18M22 18.667C23.105 18.667 24 19.413 24 20.333" stroke="#F8F8F8" stroke-width="1.5" stroke-linecap="round"/>
<path d="M27 13.338C25.4805 12.4589 23.7555 11.9973 22 12C16.477 12 12 16.477 12 22C12 23.6 12.376 25.112 13.043 26.453C13.221 26.809 13.28 27.216 13.177 27.601L12.582 29.827C12.5231 30.0473 12.5231 30.2792 12.5822 30.4995C12.6412 30.7197 12.7571 30.9206 12.9183 31.0819C13.0795 31.2432 13.2803 31.3593 13.5005 31.4184C13.7208 31.4776 13.9527 31.4778 14.173 31.419L16.399 30.823C16.7854 30.7258 17.194 30.7731 17.548 30.956C18.9309 31.6446 20.4551 32.0021 22 32C27.523 32 32 27.523 32 22C32 20.179 31.513 18.47 30.662 17" stroke="#F8F8F8" stroke-width="1.5" stroke-linecap="round"/>
</svg>
