<svg width="44" height="44" viewBox="0 0 44 44" fill="none" xmlns="http://www.w3.org/2000/svg">
<circle cx="22" cy="22" r="21.5" stroke="white" stroke-dasharray="5 5"/>
<path d="M17 31L19 27M23 31V27L20 24L21 18L24 22L27 24M21 14C21 14.2652 21.1054 14.5196 21.2929 14.7071C21.4804 14.8946 21.7348 15 22 15C22.2652 15 22.5196 14.8946 22.7071 14.7071C22.8946 14.5196 23 14.2652 23 14C23 13.7348 22.8946 13.4804 22.7071 13.2929C22.5196 13.1054 22.2652 13 22 13C21.7348 13 21.4804 13.1054 21.2929 13.2929C21.1054 13.4804 21 13.7348 21 14Z" stroke="#F8F8F8" stroke-width="2" stroke-linecap="round" stroke-linejoin="round"/>
<path d="M20.0001 24L18.1731 22.782C17.8297 22.5531 17.5655 22.2237 17.4167 21.8388C17.2679 21.4538 17.2419 21.0323 17.3421 20.632L17.6221 19.515C17.7302 19.0825 17.9797 18.6985 18.331 18.424C18.6823 18.1495 19.1153 18.0003 19.5611 18H21.0001L25.0001 19L28.0001 17M27.0001 22V31M26.0001 30H28.0001" stroke="#F8F8F8" stroke-width="2" stroke-linecap="round" stroke-linejoin="round"/>
</svg>
