<svg width="44" height="44" viewBox="0 0 44 44" fill="none" xmlns="http://www.w3.org/2000/svg">
<circle cx="22" cy="22" r="21.5" stroke="white" stroke-dasharray="5 5"/>
<path d="M25.6667 13.75V17.4167M18.3334 13.75V17.4167M14.6667 21.0833H29.3334M21.0834 24.75H22.0001V27.5M14.6667 17.4167C14.6667 16.9304 14.8599 16.4641 15.2037 16.1203C15.5475 15.7765 16.0139 15.5833 16.5001 15.5833H27.5001C27.9863 15.5833 28.4526 15.7765 28.7964 16.1203C29.1403 16.4641 29.3334 16.9304 29.3334 17.4167V28.4167C29.3334 28.9029 29.1403 29.3692 28.7964 29.713C28.4526 30.0568 27.9863 30.25 27.5001 30.25H16.5001C16.0139 30.25 15.5475 30.0568 15.2037 29.713C14.8599 29.3692 14.6667 28.9029 14.6667 28.4167V17.4167Z" stroke="#F8F8F8" stroke-width="1.3" stroke-linecap="round" stroke-linejoin="round"/>
</svg>
