<svg width="44" height="44" viewBox="0 0 44 44" fill="none" xmlns="http://www.w3.org/2000/svg">
<circle cx="22" cy="22" r="21.5" stroke="#B2A89C" stroke-dasharray="5 5"/>
<path d="M16 29C18.2091 29 20 27.2091 20 25C20 22.7909 18.2091 21 16 21C13.7909 21 12 22.7909 12 25C12 27.2091 13.7909 29 16 29Z" stroke="#B2A89C" stroke-width="2" stroke-linecap="round" stroke-linejoin="round"/>
<path d="M28 29C30.2091 29 32 27.2091 32 25C32 22.7909 30.2091 21 28 21C25.7909 21 24 22.7909 24 25C24 27.2091 25.7909 29 28 29Z" stroke="#B2A89C" stroke-width="2" stroke-linecap="round" stroke-linejoin="round"/>
<path d="M16 25L18 18H25.5M16 15H19M28 25L25 15H29H29.5C29.8978 15 30.2794 15.158 30.5607 15.4393C30.842 15.7206 31 16.1022 31 16.5C31 16.8978 30.842 17.2794 30.5607 17.5607C30.2794 17.842 29.8978 18 29.5 18H29" stroke="#B2A89C" stroke-width="2" stroke-linecap="round" stroke-linejoin="round"/>
</svg>
