<svg width="44" height="44" viewBox="0 0 44 44" fill="none" xmlns="http://www.w3.org/2000/svg">
<circle cx="22" cy="22" r="21.5" stroke="white" stroke-dasharray="5 5"/>
<path fill-rule="evenodd" clip-rule="evenodd" d="M19.368 14.2896C19.471 13.9054 19.7224 13.5778 20.0669 13.3789C20.4114 13.18 20.8208 13.1261 21.205 13.2291L29.415 15.4291C29.6053 15.48 29.7837 15.568 29.94 15.6878C30.0963 15.8077 30.2275 15.9572 30.326 16.1278C30.4245 16.2984 30.4885 16.4867 30.5142 16.682C30.54 16.8773 30.527 17.0758 30.476 17.2661L30.411 17.5076L31.518 17.8041C31.5815 17.8211 31.6409 17.8504 31.693 17.8904C31.7451 17.9304 31.7888 17.9802 31.8217 18.0371C31.8545 18.094 31.8758 18.1568 31.8843 18.2219C31.8929 18.287 31.8885 18.3531 31.8715 18.4166L31.4185 20.1066C31.4015 20.17 31.3722 20.2295 31.3322 20.2816C31.2922 20.3337 31.2424 20.3774 31.1855 20.4102C31.1286 20.443 31.0658 20.4643 31.0007 20.4729C30.9356 20.4814 30.8695 20.4771 30.806 20.4601L29.6995 20.1636L29.4915 20.9411C29.5115 20.9774 29.5295 21.0152 29.5455 21.0546L29.9745 22.1246C30.0551 22.3253 30.0684 22.5467 30.0125 22.7556L29.3975 25.0506C29.3635 25.1774 29.3049 25.2964 29.2249 25.4006C29.1449 25.5048 29.0452 25.5922 28.9315 25.6578C28.8177 25.7235 28.6921 25.7661 28.5619 25.7832C28.4317 25.8003 28.2994 25.7916 28.1725 25.7576L25.301 24.9881L26.0255 22.2851C26.0425 22.2216 26.0469 22.1555 26.0383 22.0904C26.0298 22.0253 26.0085 21.9625 25.9757 21.9056C25.9428 21.8487 25.8991 21.7989 25.847 21.7589C25.7949 21.7189 25.7355 21.6896 25.672 21.6726L21.325 20.5076C21.1969 20.4734 21.0605 20.4915 20.9457 20.5579C20.831 20.6242 20.7473 20.7335 20.713 20.8616L19.988 23.5646L16.871 22.7296C16.7442 22.6956 16.6252 22.6369 16.521 22.557C16.4169 22.477 16.3294 22.3773 16.2638 22.2635C16.1981 22.1498 16.1555 22.0242 16.1384 21.894C16.1213 21.7638 16.13 21.6314 16.164 21.5046L16.7625 19.2696C16.8284 19.0244 16.9849 18.8135 17.2005 18.6796L18.3465 17.9671C18.3609 17.9581 18.375 17.9497 18.389 17.9421L18.5915 17.1871L17.4345 16.8771C17.3065 16.8427 17.1974 16.759 17.1311 16.6442C17.0648 16.5295 17.0468 16.3931 17.081 16.2651L17.534 14.5751C17.551 14.5116 17.5803 14.4521 17.6202 14.3999C17.6602 14.3478 17.71 14.304 17.7669 14.2711C17.8238 14.2383 17.8866 14.2169 17.9517 14.2083C18.0169 14.1997 18.0831 14.2041 18.1465 14.2211L19.303 14.5311L19.368 14.2896ZM20.946 14.1946C20.8179 14.1604 20.6815 14.1785 20.5667 14.2449C20.452 14.3112 20.3683 14.4205 20.334 14.5486L19.5575 17.4461L28.7335 19.9051L29.51 17.0071C29.5442 16.879 29.5262 16.7427 29.4599 16.6279C29.3937 16.5132 29.2845 16.4294 29.1565 16.3951L20.946 14.1946ZM18.634 21.8576C18.7292 21.8831 18.8284 21.8896 18.9261 21.8768C19.0237 21.8639 19.1179 21.832 19.2032 21.7827C19.2885 21.7335 19.3633 21.6679 19.4233 21.5898C19.4833 21.5117 19.5273 21.4225 19.5528 21.3273C19.5783 21.2322 19.5848 21.1329 19.572 21.0353C19.5591 20.9376 19.5272 20.8434 19.4779 20.7581C19.4287 20.6728 19.3631 20.598 19.285 20.5381C19.2069 20.4781 19.1177 20.4341 19.0225 20.4086C18.8304 20.3571 18.6256 20.384 18.4533 20.4834C18.281 20.5829 18.1553 20.7467 18.1038 20.9388C18.0523 21.131 18.0792 21.3357 18.1786 21.508C18.2781 21.6803 18.4419 21.8061 18.634 21.8576ZM28.246 23.6566C28.2225 23.7538 28.1797 23.8453 28.1203 23.9257C28.0609 24.0062 27.9859 24.0739 27.8999 24.1249C27.8139 24.176 27.7186 24.2093 27.6195 24.223C27.5205 24.2366 27.4197 24.2304 27.3231 24.2045C27.2264 24.1786 27.136 24.1337 27.057 24.0723C26.978 24.011 26.9121 23.9344 26.8631 23.8472C26.8142 23.76 26.7832 23.6639 26.7719 23.5645C26.7606 23.4652 26.7693 23.3645 26.7975 23.2686C26.8527 23.0807 26.9792 22.9219 27.1499 22.8261C27.3206 22.7302 27.522 22.7049 27.7112 22.7556C27.9003 22.8062 28.0621 22.9288 28.162 23.0972C28.262 23.2655 28.2921 23.4663 28.246 23.6566Z" fill="white"/>
<path d="M18.5 29.5C18.5 28.97 18.263 28.461 17.841 28.086C17.419 27.711 16.8465 27.5 16.25 27.5C15.6535 27.5 15.081 27.711 14.659 28.086C14.237 28.461 14 28.9695 14 29.5V30.5C14 30.6326 14.0527 30.7598 14.1464 30.8536C14.2402 30.9473 14.3674 31 14.5 31H28.25C28.3826 31 28.5098 30.9473 28.6036 30.8536C28.6973 30.7598 28.75 30.6326 28.75 30.5C28.75 30.3674 28.6973 30.2402 28.6036 30.1465C28.5098 30.0527 28.3826 30 28.25 30H23.5C23.5 29.7348 23.3946 29.4805 23.2071 29.2929C23.0196 29.1054 22.7652 29 22.5 29C22.2348 29 21.9804 29.1054 21.7929 29.2929C21.6054 29.4805 21.5 29.7348 21.5 30C21.5 29.6022 21.342 29.2207 21.0607 28.9394C20.7794 28.6581 20.3978 28.5 20 28.5C19.6022 28.5 19.2206 28.6581 18.9393 28.9394C18.658 29.2207 18.5 29.6022 18.5 30V29.5ZM19.8225 24.473L16.9245 23.6965L16.5445 25.114C16.5275 25.1775 16.5231 25.2436 16.5317 25.3087C16.5402 25.3738 16.5615 25.4366 16.5944 25.4935C16.6272 25.5504 16.6709 25.6002 16.723 25.6402C16.7751 25.6802 16.8346 25.7095 16.898 25.7265L18.83 26.244C18.8934 26.261 18.9596 26.2654 19.0247 26.2568C19.0898 26.2483 19.1526 26.227 19.2095 26.1942C19.2664 26.1613 19.3162 26.1176 19.3562 26.0655C19.3962 26.0134 19.4255 25.954 19.4425 25.8905L19.8225 24.473ZM25.2225 25.943L28.1205 26.7195L27.7465 28.1155C27.7295 28.179 27.7002 28.2384 27.6602 28.2905C27.6202 28.3426 27.5704 28.3863 27.5135 28.4192C27.4566 28.452 27.3938 28.4733 27.3287 28.4818C27.2636 28.4904 27.1974 28.486 27.134 28.469L25.202 27.9515C25.1386 27.9345 25.0791 27.9052 25.027 27.8652C24.9749 27.8252 24.9312 27.7754 24.8984 27.7185C24.8655 27.6616 24.8442 27.5988 24.8357 27.5337C24.8271 27.4686 24.8315 27.4025 24.8485 27.339L25.2225 25.943ZM21.0315 23.535L21.5495 21.603L22.8075 21.9405L22.2435 23.86L21.0315 23.535ZM23.21 24.119L23.7735 22.199L24.93 22.509L24.4125 24.441L23.21 24.119Z" fill="white"/>
</svg>
