<svg width="44" height="44" viewBox="0 0 44 44" fill="none" xmlns="http://www.w3.org/2000/svg">
<circle cx="22" cy="22" r="21.5" stroke="#B2A89C" stroke-dasharray="5 5"/>
<path d="M17 30L19 26M23 30V26L20 23L21 17L24 21L27 23M21 13C21 13.2652 21.1054 13.5196 21.2929 13.7071C21.4804 13.8946 21.7348 14 22 14C22.2652 14 22.5196 13.8946 22.7071 13.7071C22.8946 13.5196 23 13.2652 23 13C23 12.7348 22.8946 12.4804 22.7071 12.2929C22.5196 12.1054 22.2652 12 22 12C21.7348 12 21.4804 12.1054 21.2929 12.2929C21.1054 12.4804 21 12.7348 21 13Z" stroke="#B2A89C" stroke-width="2" stroke-linecap="round" stroke-linejoin="round"/>
<path d="M20 23L18.173 21.782C17.8296 21.5531 17.5654 21.2237 17.4166 20.8388C17.2678 20.4538 17.2418 20.0323 17.342 19.632L17.622 18.515C17.7301 18.0825 17.9796 17.6985 18.3309 17.424C18.6822 17.1495 19.1152 17.0003 19.561 17H21L25 18L28 16M27 21V30M26 29H28" stroke="#B2A89C" stroke-width="2" stroke-linecap="round" stroke-linejoin="round"/>
</svg>
