<svg width="24" height="24" viewBox="0 0 24 24" fill="none" xmlns="http://www.w3.org/2000/svg">
<g clip-path="url(#clip0_162_950)">
<path fill-rule="evenodd" clip-rule="evenodd" d="M12.0196 0.0195312C5.40164 0.0195312 0.0195923 5.40256 0.0195923 12.0195C0.0195923 18.6365 5.4015 24.0195 12.0196 24.0195C18.6377 24.0195 24.0196 18.6363 24.0196 12.0195C24.0196 5.4028 18.6376 0.0195312 12.0196 0.0195312ZM12.0196 4.61328C16.1036 4.61328 19.4247 7.93573 19.4247 12.0195C19.4247 16.1033 16.1036 19.4258 12.0196 19.4258C7.93561 19.4258 4.6125 16.1034 4.6125 12.0194C4.6125 7.93545 7.93561 4.61342 12.0196 4.61342V4.61328ZM11.6326 15.5062C10.8047 15.5282 9.98098 15.633 9.17386 15.8189C8.98745 15.3076 8.84322 14.782 8.74261 14.2472H11.6325V15.5062H11.6326ZM11.6326 16.2571V18.6337C10.8941 18.4725 10.3281 17.8761 9.96544 17.3638C9.77839 17.0961 9.61349 16.8136 9.47236 16.5192C10.1827 16.3646 10.9059 16.2769 11.6326 16.2571ZM9.35297 17.7974C9.46916 17.9611 9.59389 18.1185 9.72666 18.269C8.99216 17.9975 8.31108 17.5991 7.7145 17.0918C8.0457 16.9433 8.38619 16.8165 8.73384 16.7121C8.90756 17.0916 9.11475 17.4548 9.35297 17.7974ZM15.3053 16.7122C15.653 16.8165 15.9935 16.9434 16.3247 17.0919C15.7281 17.5991 15.0471 17.9976 14.3126 18.2691C14.4453 18.1185 14.57 17.9611 14.6863 17.7975C14.9244 17.4548 15.1316 17.0917 15.3053 16.7122V16.7122ZM14.0737 17.3638C13.7067 17.8818 13.1316 18.4855 12.3822 18.6388V16.2562C13.1171 16.275 13.8485 16.3631 14.5668 16.5192C14.4257 16.8136 14.2608 17.0961 14.0737 17.3638V17.3638ZM12.3822 15.5053V14.2472H15.2965C15.1959 14.782 15.0517 15.3076 14.8653 15.8188C14.0503 15.6309 13.2184 15.5259 12.3822 15.5053ZM5.52769 13.4969C5.3095 12.524 5.3095 11.5148 5.52769 10.5419H18.5093C18.7304 11.5145 18.7304 12.5243 18.5093 13.4969H5.52769ZM12.3822 8.534C13.2184 8.51325 14.0503 8.40812 14.8653 8.22022C15.0517 8.73154 15.196 9.25726 15.2966 9.79212H12.3822V8.534ZM12.3822 7.78353V5.40036C13.1318 5.55359 13.7067 6.15744 14.0737 6.67536C14.2607 6.94309 14.4256 7.22557 14.5668 7.52C13.8485 7.67623 13.1171 7.76448 12.3822 7.78358V7.78353ZM14.6863 6.24172C14.5702 6.07805 14.4454 5.92069 14.3126 5.7703C15.0471 6.04164 15.7282 6.44003 16.3247 6.94728C15.9935 7.09584 15.653 7.22281 15.3053 7.32739C15.1317 6.9478 14.9245 6.58447 14.6863 6.24172ZM8.73384 7.32739C8.38622 7.2228 8.04573 7.09583 7.7145 6.94728C8.311 6.44003 8.99206 6.04164 9.72656 5.7703C9.59369 5.92066 9.46894 6.07803 9.35287 6.24172C9.11459 6.58446 8.90739 6.94779 8.73375 7.32739H8.73384ZM9.96562 6.67531C10.3282 6.16297 10.8943 5.56686 11.6328 5.40542V7.78241C10.9061 7.76225 10.1829 7.67437 9.47255 7.51991C9.61378 7.2255 9.77868 6.94304 9.96562 6.67531ZM11.6328 8.53292V9.79217H8.7427C8.84328 9.2573 8.98751 8.73158 9.17395 8.22027C9.98105 8.4063 10.8048 8.51106 11.6327 8.53297L11.6328 8.53292ZM16.0594 9.79217C15.9529 9.19039 15.7961 8.59862 15.5906 8.02306C16.0416 7.88477 16.4808 7.71078 16.9041 7.50275C17.517 8.16413 17.9893 8.94296 18.2926 9.79212L16.0594 9.79217ZM7.13517 7.5028C7.55848 7.71082 7.99768 7.88481 8.44861 8.02311C8.24211 8.59834 8.08529 9.19021 7.97986 9.79222H5.74659C6.04989 8.94305 6.52227 8.16423 7.13517 7.50284V7.5028ZM5.74659 14.2472H7.97986C8.08531 14.8491 8.24214 15.4409 8.44861 16.0161C7.99766 16.1544 7.55846 16.3283 7.13517 16.5364C6.52233 15.875 6.04996 15.0963 5.74659 14.2472V14.2472ZM16.904 16.5364C16.4807 16.3283 16.0415 16.1543 15.5906 16.016C15.796 15.4405 15.9528 14.8488 16.0593 14.2471H18.2925C17.9892 15.0962 17.5168 15.875 16.904 16.5363L16.904 16.5364ZM17.784 11.2564L17.145 13.0368C17.1187 13.1095 17.0706 13.1723 17.0073 13.2167C16.944 13.2612 16.8685 13.285 16.7911 13.285C16.7138 13.285 16.6383 13.2612 16.575 13.2167C16.5117 13.1723 16.4636 13.1095 16.4372 13.0368L16.1498 12.2379L15.8646 13.0368C15.8382 13.1095 15.7901 13.1723 15.7268 13.2167C15.6635 13.2612 15.588 13.285 15.5107 13.285C15.4333 13.285 15.3578 13.2612 15.2945 13.2167C15.2312 13.1723 15.1831 13.1095 15.1567 13.0368L14.5177 11.2564C14.4994 11.2097 14.4906 11.1598 14.4919 11.1097C14.4932 11.0595 14.5045 11.0102 14.5252 10.9645C14.5459 10.9188 14.5755 10.8777 14.6124 10.8437C14.6492 10.8097 14.6925 10.7834 14.7397 10.7664C14.7869 10.7494 14.837 10.742 14.8871 10.7447C14.9371 10.7475 14.9862 10.7602 15.0312 10.7822C15.0763 10.8042 15.1165 10.835 15.1495 10.8728C15.1824 10.9106 15.2074 10.9546 15.2231 11.0023L15.5105 11.8012L15.798 11.0023C15.8242 10.9298 15.8721 10.8671 15.9352 10.8228C15.9983 10.7785 16.0736 10.7548 16.1507 10.7548C16.2278 10.7548 16.303 10.7785 16.3661 10.8228C16.4292 10.8671 16.4771 10.9298 16.5033 11.0023L16.7908 11.8012L17.0782 11.0023C17.0939 10.9546 17.1189 10.9106 17.1519 10.8728C17.1848 10.835 17.225 10.8042 17.2701 10.7822C17.3152 10.7602 17.3642 10.7475 17.4143 10.7447C17.4643 10.742 17.5145 10.7494 17.5616 10.7664C17.6088 10.7834 17.6521 10.8097 17.689 10.8437C17.7258 10.8777 17.7555 10.9188 17.7762 10.9645C17.7969 11.0102 17.8082 11.0595 17.8094 11.1097C17.8107 11.1598 17.8019 11.2097 17.7836 11.2564H17.784ZM13.6514 11.2564L13.0125 13.0368C12.9863 13.1093 12.9384 13.172 12.8753 13.2163C12.8122 13.2606 12.7369 13.2843 12.6598 13.2843C12.5827 13.2843 12.5075 13.2606 12.4444 13.2163C12.3812 13.172 12.3333 13.1093 12.3071 13.0368L12.0197 12.2379L11.7322 13.0368C11.706 13.1093 11.6581 13.172 11.595 13.2163C11.5319 13.2606 11.4567 13.2843 11.3796 13.2843C11.3025 13.2843 11.2272 13.2606 11.1641 13.2163C11.101 13.172 11.0531 13.1093 11.0269 13.0368L10.3879 11.2564C10.3695 11.2097 10.3607 11.1598 10.362 11.1097C10.3633 11.0595 10.3746 11.0102 10.3953 10.9645C10.416 10.9188 10.4456 10.8777 10.4825 10.8437C10.5193 10.8097 10.5626 10.7834 10.6098 10.7664C10.657 10.7494 10.7071 10.742 10.7572 10.7447C10.8073 10.7475 10.8563 10.7602 10.9014 10.7822C10.9464 10.8042 10.9866 10.835 11.0196 10.8728C11.0525 10.9106 11.0776 10.9546 11.0932 11.0023L11.3807 11.8012L11.6659 11.0023C11.6923 10.9296 11.7404 10.8667 11.8037 10.8223C11.867 10.7779 11.9425 10.7541 12.0198 10.7541C12.0972 10.7541 12.1726 10.7779 12.236 10.8223C12.2993 10.8667 12.3474 10.9296 12.3737 11.0023L12.659 11.8012L12.9464 11.0023C12.962 10.9546 12.9871 10.9106 13.02 10.8728C13.053 10.835 13.0932 10.8042 13.1382 10.7822C13.1833 10.7602 13.2323 10.7475 13.2824 10.7447C13.3325 10.742 13.3826 10.7494 13.4298 10.7664C13.477 10.7834 13.5203 10.8097 13.5571 10.8437C13.594 10.8777 13.6236 10.9188 13.6443 10.9645C13.665 11.0102 13.6763 11.0595 13.6776 11.1097C13.6789 11.1598 13.6701 11.2097 13.6517 11.2564H13.6514ZM9.52101 11.2564L8.87976 13.0368C8.85405 13.1094 8.80641 13.1723 8.74344 13.2167C8.68046 13.2611 8.60526 13.2848 8.5282 13.2846C8.45094 13.2846 8.37557 13.2607 8.3123 13.2164C8.24903 13.1721 8.2009 13.1094 8.17444 13.0368L7.88695 12.2379L7.60172 13.0368C7.57532 13.1094 7.52721 13.1721 7.46392 13.2165C7.40063 13.2608 7.32523 13.2846 7.24795 13.2846C7.17068 13.2846 7.09527 13.2608 7.03198 13.2165C6.96869 13.1721 6.92058 13.1094 6.89419 13.0368L6.25514 11.2564C6.23692 11.2097 6.22823 11.1599 6.22958 11.1098C6.23094 11.0597 6.2423 11.0105 6.26302 10.9648C6.28373 10.9192 6.31337 10.8783 6.35019 10.8443C6.387 10.8103 6.43025 10.7841 6.47737 10.7671C6.52449 10.7502 6.57454 10.7428 6.62455 10.7455C6.67456 10.7482 6.72353 10.7608 6.76857 10.7828C6.8136 10.8047 6.85379 10.8354 6.88675 10.8731C6.91972 10.9108 6.9448 10.9547 6.96051 11.0023L7.24795 11.8012L7.53539 11.0023C7.56159 10.9298 7.60951 10.8671 7.67262 10.8228C7.73573 10.7785 7.81097 10.7547 7.88808 10.7547C7.96519 10.7547 8.04042 10.7785 8.10353 10.8228C8.16664 10.8671 8.21456 10.9298 8.24076 11.0023L8.5282 11.8012L8.81564 11.0023C8.83135 10.9547 8.85643 10.9108 8.8894 10.8731C8.92237 10.8354 8.96255 10.8047 9.00759 10.7828C9.05262 10.7608 9.10159 10.7482 9.1516 10.7455C9.20162 10.7428 9.25166 10.7502 9.29878 10.7671C9.34591 10.7841 9.38915 10.8103 9.42597 10.8443C9.46278 10.8783 9.49242 10.9192 9.51313 10.9648C9.53385 11.0105 9.54522 11.0597 9.54657 11.1098C9.54792 11.1599 9.53924 11.2097 9.52101 11.2564Z" fill="#324B3E"/>
</g>
<defs>
<clipPath id="clip0_162_950">
<rect width="24" height="24" fill="white"/>
</clipPath>
</defs>
</svg>
