<svg width="25" height="25" viewBox="0 0 25 25" fill="none" xmlns="http://www.w3.org/2000/svg">
<path d="M19.0918 23.4375C18.1387 23.4375 16.7998 23.0928 14.7949 21.9727C12.3569 20.6055 10.4712 19.3433 8.04638 16.9248C5.70849 14.5884 4.5708 13.0757 2.97851 10.1783C1.17968 6.90677 1.48632 5.19193 1.8291 4.45902C2.2373 3.58304 2.83984 3.05912 3.61865 2.5391C4.06101 2.24927 4.52913 2.00083 5.01709 1.79691C5.06591 1.77591 5.11133 1.75589 5.15185 1.73783C5.39355 1.62894 5.75976 1.46439 6.22363 1.64017C6.5332 1.75638 6.80957 1.99418 7.24218 2.42142C8.12939 3.29642 9.34179 5.24515 9.78906 6.20218C10.0894 6.8472 10.2881 7.27298 10.2886 7.75052C10.2886 8.30961 10.0073 8.74076 9.66601 9.20609C9.60205 9.29349 9.53857 9.37699 9.47705 9.45804C9.10547 9.94633 9.02392 10.0874 9.07763 10.3394C9.18652 10.8457 9.99853 12.3531 11.333 13.6846C12.6675 15.0162 14.1313 15.7769 14.6396 15.8853C14.9023 15.9414 15.0464 15.8565 15.5503 15.4717C15.6226 15.4165 15.6968 15.3594 15.7744 15.3023C16.2949 14.9151 16.7061 14.6411 17.252 14.6411H17.2549C17.73 14.6411 18.1367 14.8472 18.8105 15.187C19.6894 15.6304 21.6968 16.8272 22.5771 17.7154C23.0054 18.147 23.2441 18.4224 23.3608 18.7315C23.5366 19.1968 23.3711 19.5616 23.2632 19.8057C23.2451 19.8462 23.2251 19.8907 23.2041 19.94C22.9986 20.4271 22.7487 20.8942 22.4575 21.3355C21.9385 22.1119 21.4126 22.7129 20.5347 23.1216C20.0839 23.3349 19.5905 23.4429 19.0918 23.4375Z" fill="#F8F8F8"/>
</svg>
