<svg width="44" height="45" viewBox="0 0 44 45" fill="none" xmlns="http://www.w3.org/2000/svg">
<circle cx="22" cy="22.5" r="21.5" stroke="#B2A89C" stroke-dasharray="5 5"/>
<path fill-rule="evenodd" clip-rule="evenodd" d="M18.368 14.2896C18.471 13.9054 18.7224 13.5778 19.0669 13.3789C19.4114 13.18 19.8208 13.1261 20.205 13.2291L28.415 15.4291C28.6053 15.48 28.7837 15.568 28.94 15.6878C29.0963 15.8077 29.2275 15.9572 29.326 16.1278C29.4245 16.2984 29.4885 16.4867 29.5142 16.682C29.54 16.8773 29.527 17.0758 29.476 17.2661L29.411 17.5076L30.518 17.8041C30.5815 17.8211 30.6409 17.8504 30.693 17.8904C30.7451 17.9304 30.7888 17.9802 30.8217 18.0371C30.8545 18.094 30.8758 18.1568 30.8843 18.2219C30.8929 18.287 30.8885 18.3531 30.8715 18.4166L30.4185 20.1066C30.4015 20.17 30.3722 20.2295 30.3322 20.2816C30.2922 20.3337 30.2424 20.3774 30.1855 20.4102C30.1286 20.443 30.0658 20.4643 30.0007 20.4729C29.9356 20.4814 29.8695 20.4771 29.806 20.4601L28.6995 20.1636L28.4915 20.9411C28.5115 20.9774 28.5295 21.0152 28.5455 21.0546L28.9745 22.1246C29.0551 22.3253 29.0684 22.5467 29.0125 22.7556L28.3975 25.0506C28.3635 25.1774 28.3049 25.2964 28.2249 25.4006C28.1449 25.5048 28.0452 25.5922 27.9315 25.6578C27.8177 25.7235 27.6921 25.7661 27.5619 25.7832C27.4317 25.8003 27.2994 25.7916 27.1725 25.7576L24.301 24.9881L25.0255 22.2851C25.0425 22.2216 25.0469 22.1555 25.0383 22.0904C25.0298 22.0253 25.0085 21.9625 24.9757 21.9056C24.9428 21.8487 24.8991 21.7989 24.847 21.7589C24.7949 21.7189 24.7355 21.6896 24.672 21.6726L20.325 20.5076C20.1969 20.4734 20.0605 20.4915 19.9457 20.5579C19.831 20.6242 19.7473 20.7335 19.713 20.8616L18.988 23.5646L15.871 22.7296C15.7442 22.6956 15.6252 22.6369 15.521 22.557C15.4169 22.477 15.3294 22.3773 15.2638 22.2635C15.1981 22.1498 15.1555 22.0242 15.1384 21.894C15.1213 21.7638 15.13 21.6314 15.164 21.5046L15.7625 19.2696C15.8284 19.0244 15.9849 18.8135 16.2005 18.6796L17.3465 17.9671C17.3609 17.9581 17.375 17.9497 17.389 17.9421L17.5915 17.1871L16.4345 16.8771C16.3065 16.8427 16.1974 16.759 16.1311 16.6442C16.0648 16.5295 16.0468 16.3931 16.081 16.2651L16.534 14.5751C16.551 14.5116 16.5803 14.4521 16.6202 14.3999C16.6602 14.3478 16.71 14.304 16.7669 14.2711C16.8238 14.2383 16.8866 14.2169 16.9517 14.2083C17.0169 14.1997 17.0831 14.2041 17.1465 14.2211L18.303 14.5311L18.368 14.2896ZM19.946 14.1946C19.8179 14.1604 19.6815 14.1785 19.5667 14.2449C19.452 14.3112 19.3683 14.4205 19.334 14.5486L18.5575 17.4461L27.7335 19.9051L28.51 17.0071C28.5442 16.879 28.5262 16.7427 28.4599 16.6279C28.3937 16.5132 28.2845 16.4294 28.1565 16.3951L19.946 14.1946ZM17.634 21.8576C17.7292 21.8831 17.8284 21.8896 17.9261 21.8768C18.0237 21.8639 18.1179 21.832 18.2032 21.7827C18.2885 21.7335 18.3633 21.6679 18.4233 21.5898C18.4833 21.5117 18.5273 21.4225 18.5528 21.3273C18.5783 21.2322 18.5848 21.1329 18.572 21.0353C18.5591 20.9376 18.5272 20.8434 18.4779 20.7581C18.4287 20.6728 18.3631 20.598 18.285 20.5381C18.2069 20.4781 18.1177 20.4341 18.0225 20.4086C17.8304 20.3571 17.6256 20.384 17.4533 20.4834C17.281 20.5829 17.1553 20.7467 17.1038 20.9388C17.0523 21.131 17.0792 21.3357 17.1786 21.508C17.2781 21.6803 17.4419 21.8061 17.634 21.8576ZM27.246 23.6566C27.2225 23.7538 27.1797 23.8453 27.1203 23.9257C27.0609 24.0062 26.9859 24.0739 26.8999 24.1249C26.8139 24.176 26.7186 24.2093 26.6195 24.223C26.5205 24.2366 26.4197 24.2304 26.3231 24.2045C26.2264 24.1786 26.136 24.1337 26.057 24.0723C25.978 24.011 25.9121 23.9344 25.8631 23.8472C25.8142 23.76 25.7832 23.6639 25.7719 23.5645C25.7606 23.4652 25.7693 23.3645 25.7975 23.2686C25.8527 23.0807 25.9792 22.9219 26.1499 22.8261C26.3206 22.7302 26.522 22.7049 26.7112 22.7556C26.9003 22.8062 27.0621 22.9288 27.162 23.0972C27.262 23.2655 27.2921 23.4663 27.246 23.6566Z" fill="#B2A89C"/>
<path d="M17.5 29.5C17.5 28.97 17.263 28.461 16.841 28.086C16.419 27.711 15.8465 27.5 15.25 27.5C14.6535 27.5 14.081 27.711 13.659 28.086C13.237 28.461 13 28.9695 13 29.5V30.5C13 30.6326 13.0527 30.7598 13.1464 30.8536C13.2402 30.9473 13.3674 31 13.5 31H27.25C27.3826 31 27.5098 30.9473 27.6036 30.8536C27.6973 30.7598 27.75 30.6326 27.75 30.5C27.75 30.3674 27.6973 30.2402 27.6036 30.1465C27.5098 30.0527 27.3826 30 27.25 30H22.5C22.5 29.7348 22.3946 29.4805 22.2071 29.2929C22.0196 29.1054 21.7652 29 21.5 29C21.2348 29 20.9804 29.1054 20.7929 29.2929C20.6054 29.4805 20.5 29.7348 20.5 30C20.5 29.6022 20.342 29.2207 20.0607 28.9394C19.7794 28.6581 19.3978 28.5 19 28.5C18.6022 28.5 18.2206 28.6581 17.9393 28.9394C17.658 29.2207 17.5 29.6022 17.5 30V29.5ZM18.8225 24.473L15.9245 23.6965L15.5445 25.114C15.5275 25.1775 15.5231 25.2436 15.5317 25.3087C15.5402 25.3738 15.5615 25.4366 15.5944 25.4935C15.6272 25.5504 15.6709 25.6002 15.723 25.6402C15.7751 25.6802 15.8346 25.7095 15.898 25.7265L17.83 26.244C17.8934 26.261 17.9596 26.2654 18.0247 26.2568C18.0898 26.2483 18.1526 26.227 18.2095 26.1942C18.2664 26.1613 18.3162 26.1176 18.3562 26.0655C18.3962 26.0134 18.4255 25.954 18.4425 25.8905L18.8225 24.473ZM24.2225 25.943L27.1205 26.7195L26.7465 28.1155C26.7295 28.179 26.7002 28.2384 26.6602 28.2905C26.6202 28.3426 26.5704 28.3863 26.5135 28.4192C26.4566 28.452 26.3938 28.4733 26.3287 28.4818C26.2636 28.4904 26.1974 28.486 26.134 28.469L24.202 27.9515C24.1386 27.9345 24.0791 27.9052 24.027 27.8652C23.9749 27.8252 23.9312 27.7754 23.8984 27.7185C23.8655 27.6616 23.8442 27.5988 23.8357 27.5337C23.8271 27.4686 23.8315 27.4025 23.8485 27.339L24.2225 25.943ZM20.0315 23.535L20.5495 21.603L21.8075 21.9405L21.2435 23.86L20.0315 23.535ZM22.21 24.119L22.7735 22.199L23.93 22.509L23.4125 24.441L22.21 24.119Z" fill="#B2A89C"/>
</svg>
