<svg width="24" height="24" viewBox="0 0 24 24" fill="none" xmlns="http://www.w3.org/2000/svg">
    <g clip-path="url(#clip0_162_962)">
    <path fill-rule="evenodd" clip-rule="evenodd" d="M12.2723 13.7802C12.1969 13.8461 12.1001 13.8824 12 13.8824C11.8999 13.8824 11.8031 13.8461 11.7277 13.7802L10.6916 12.874L7.15613 16.6768H16.8439L13.3084 12.8749L12.2723 13.7802Z" fill="#324B3E"/>
    <path fill-rule="evenodd" clip-rule="evenodd" d="M6.62067 9.31299V16.038L10.0684 12.3295L6.62067 9.31299Z" fill="#324B3E"/>
    <path fill-rule="evenodd" clip-rule="evenodd" d="M17.0565 8.49556L12 5.96729L6.94342 8.49556L12 12.9207L17.0565 8.49556Z" fill="#324B3E"/>
    <path fill-rule="evenodd" clip-rule="evenodd" d="M12 0.125C9.62663 0.125 7.30655 0.828788 5.33316 2.14736C3.35977 3.46594 1.8217 5.34008 0.913451 7.5328C0.00519946 9.72551 -0.232441 12.1383 0.230582 14.4661C0.693604 16.7939 1.83649 18.932 3.51472 20.6103C5.19295 22.2885 7.33115 23.4314 9.65892 23.8944C11.9867 24.3574 14.3995 24.1198 16.5922 23.2115C18.7849 22.3033 20.6591 20.7652 21.9776 18.7918C23.2962 16.8185 24 14.4984 24 12.125C23.9985 8.94287 22.7337 5.89152 20.4836 3.64141C18.2335 1.39131 15.1821 0.126535 12 0.125ZM18.2069 17.0905C18.2069 17.2003 18.1633 17.3055 18.0857 17.3831C18.0081 17.4607 17.9028 17.5043 17.7931 17.5043H6.2069C6.09716 17.5043 5.99191 17.4607 5.9143 17.3831C5.8367 17.3055 5.79311 17.2003 5.79311 17.0905V8.40086C5.7931 8.32313 5.81499 8.24697 5.85627 8.18111C5.89754 8.11524 5.95653 8.06234 6.02649 8.02845L11.8146 5.1319C11.8722 5.10306 11.9356 5.08805 12 5.08805C12.0644 5.08805 12.1278 5.10306 12.1854 5.1319L17.9735 8.02845C18.0435 8.06234 18.1025 8.11524 18.1437 8.18111C18.185 8.24697 18.2069 8.32313 18.2069 8.40086V17.0905Z" fill="#324B3E"/>
    <path fill-rule="evenodd" clip-rule="evenodd" d="M17.3793 16.038V9.31299L13.9316 12.3295L17.3793 16.038Z" fill="#324B3E"/>
    </g>
    <defs>
    <clipPath id="clip0_162_962">
    <rect width="24" height="24" fill="white"/>
    </clipPath>
    </defs>
</svg>