<svg width="24" height="24" viewBox="0 0 24 24" fill="none" xmlns="http://www.w3.org/2000/svg">
    <path fill-rule="evenodd" clip-rule="evenodd" d="M12 24C18.6274 24 24 18.6274 24 12C24 5.37258 18.6274 0 12 0C5.37258 0 0 5.37258 0 12C0 18.6274 5.37258 24 12 24ZM17.6436 14.9041L16.2178 13.4753C15.7426 12.999 14.792 12.999 14.3168 13.4753L13.3663 14.4278C11.6616 14.1853 9.80196 12.2845 9.56436 10.6176L10.5149 9.66504C10.9901 9.18874 10.9902 8.23614 10.5149 7.7599L9.08064 6.38578C8.60528 5.90948 7.66354 5.85472 7.18823 6.33106C6.23774 7.28362 6 7.99814 6 8.95064C6 10.3795 6.23789 12.0462 9.08928 14.9039C11.9408 17.7616 13.1286 18 15.0295 18C15.5165 18 16.724 17.7307 17.6435 16.8092C18.1188 16.3328 18.1188 15.3804 17.6436 14.9041Z" fill="#324B3E"/>
</svg>