<svg width="24" height="25" viewBox="0 0 24 25" fill="none" xmlns="http://www.w3.org/2000/svg">
<path d="M4 23.5L6 14.5H7.525L5.525 23.5H4ZM7 23.5L9.8 9.40001L8 10.1V13.5H6V8.80001L11.05 6.65001C11.5333 6.45001 12.025 6.42934 12.525 6.58801C13.025 6.74667 13.4167 7.05067 13.7 7.50001L14.7 9.10001C15.1333 9.80001 15.721 10.375 16.463 10.825C17.205 11.275 18.0507 11.5 19 11.5V13.5C17.9 13.5 16.8707 13.271 15.912 12.813C14.9533 12.355 14.1493 11.7507 13.5 11L12.9 14L15 16V23.5H13V17.5L10.9 15.5L9.1 23.5H7ZM13.5 6.00001C12.95 6.00001 12.4793 5.80434 12.088 5.41301C11.6967 5.02167 11.5007 4.55067 11.5 4.00001C11.4993 3.44934 11.6953 2.97867 12.088 2.58801C12.4807 2.19734 12.9513 2.00134 13.5 2.00001C14.0487 1.99867 14.5197 2.19467 14.913 2.58801C15.3063 2.98134 15.502 3.45201 15.5 4.00001C15.498 4.54801 15.3023 5.01901 14.913 5.41301C14.5237 5.80701 14.0527 6.00267 13.5 6.00001ZM17.5 23.5V14.5H19V23.5H17.5Z" fill="#F8F8F8"/>
</svg>
