<svg width="44" height="44" viewBox="0 0 44 44" fill="none" xmlns="http://www.w3.org/2000/svg">
<circle cx="22" cy="22" r="21.5" stroke="white" stroke-dasharray="5 5"/>
<path d="M19 27.625C18.3038 27.625 17.6361 27.3484 17.1438 26.8562C16.6516 26.3639 16.375 25.6962 16.375 25V18C16.375 17.3038 16.6516 16.6361 17.1438 16.1438C17.6361 15.6516 18.3038 15.375 19 15.375C19.2321 15.375 19.4546 15.2828 19.6187 15.1187C19.7828 14.9546 19.875 14.7321 19.875 14.5C19.875 14.2679 19.7828 14.0454 19.6187 13.8813C19.4546 13.7172 19.2321 13.625 19 13.625C17.8397 13.625 16.7269 14.0859 15.9064 14.9064C15.0859 15.7269 14.625 16.8397 14.625 18V25C14.625 26.1603 15.0859 27.2731 15.9064 28.0936C16.7269 28.9141 17.8397 29.375 19 29.375C19.2321 29.375 19.4546 29.2828 19.6187 29.1187C19.7828 28.9546 19.875 28.7321 19.875 28.5C19.875 28.2679 19.7828 28.0454 19.6187 27.8813C19.4546 27.7172 19.2321 27.625 19 27.625ZM25.7463 24.7463C25.8283 24.6649 25.8934 24.5681 25.9378 24.4615C25.9822 24.3549 26.0051 24.2405 26.0051 24.125C26.0051 24.0095 25.9822 23.8951 25.9378 23.7885C25.8934 23.6819 25.8283 23.5851 25.7463 23.5037L23.7337 21.5L25.7463 19.4963C25.911 19.3315 26.0036 19.108 26.0036 18.875C26.0036 18.642 25.911 18.4185 25.7463 18.2537C25.5815 18.089 25.358 17.9964 25.125 17.9964C24.892 17.9964 24.6685 18.089 24.5037 18.2537L22.5 20.2663L20.4963 18.2537C20.3315 18.089 20.108 17.9964 19.875 17.9964C19.642 17.9964 19.4185 18.089 19.2537 18.2537C19.089 18.4185 18.9964 18.642 18.9964 18.875C18.9964 19.108 19.089 19.3315 19.2537 19.4963L21.2663 21.5L19.2537 23.5037C19.1717 23.5851 19.1066 23.6819 19.0622 23.7885C19.0178 23.8951 18.9949 24.0095 18.9949 24.125C18.9949 24.2405 19.0178 24.3549 19.0622 24.4615C19.1066 24.5681 19.1717 24.6649 19.2537 24.7463C19.3351 24.8283 19.4319 24.8934 19.5385 24.9378C19.6451 24.9822 19.7595 25.0051 19.875 25.0051C19.9905 25.0051 20.1049 24.9822 20.2115 24.9378C20.3181 24.8934 20.4149 24.8283 20.4963 24.7463L22.5 22.7337L24.5037 24.7463C24.5851 24.8283 24.6819 24.8934 24.7885 24.9378C24.8951 24.9822 25.0095 25.0051 25.125 25.0051C25.2405 25.0051 25.3549 24.9822 25.4615 24.9378C25.5681 24.8934 25.6649 24.8283 25.7463 24.7463ZM26 13.625C25.7679 13.625 25.5454 13.7172 25.3813 13.8813C25.2172 14.0454 25.125 14.2679 25.125 14.5C25.125 14.7321 25.2172 14.9546 25.3813 15.1187C25.5454 15.2828 25.7679 15.375 26 15.375C26.6962 15.375 27.3639 15.6516 27.8562 16.1438C28.3484 16.6361 28.625 17.3038 28.625 18V25C28.625 25.6962 28.3484 26.3639 27.8562 26.8562C27.3639 27.3484 26.6962 27.625 26 27.625C25.7679 27.625 25.5454 27.7172 25.3813 27.8813C25.2172 28.0454 25.125 28.2679 25.125 28.5C25.125 28.7321 25.2172 28.9546 25.3813 29.1187C25.5454 29.2828 25.7679 29.375 26 29.375C27.1603 29.375 28.2731 28.9141 29.0936 28.0936C29.9141 27.2731 30.375 26.1603 30.375 25V18C30.375 16.8397 29.9141 15.7269 29.0936 14.9064C28.2731 14.0859 27.1603 13.625 26 13.625Z" fill="#F8F8F8"/>
</svg>
