<svg width="500" height="530" viewBox="0 0 500 530" fill="none" xmlns="http://www.w3.org/2000/svg">
<g opacity="0.41" clip-path="url(#clip0_101_699)">
<path d="M285.607 299.734L286.458 298.595L288.16 297.741L288.727 295.748L288.303 292.974L288.233 291.054L289.224 286.857L289.721 283.513L292.272 279.815L294.257 277.895L295.038 276.471L295.462 273.768L296.526 270.354L298.936 267.65C298.936 267.65 300.141 265.587 300.281 265.302C300.422 265.018 301.273 261.745 301.273 261.745L302.831 257.762L303.966 255.484L304.817 253.99L305.384 252.211L305.951 250.362L305.738 248.369L306.446 246.661L306.659 243.816L307.083 240.614L306.446 238.694L306.162 236.275L306.446 234.141L306.8 231.652L307.083 228.878L307.721 225.179L307.934 221.907L308.218 218.777L307.934 217.639L307.367 214.865L307.58 212.305C307.58 212.305 308.005 209.531 308.005 209.317C308.005 209.103 307.934 206.827 307.934 206.827L309.493 203.414L310.557 201.136L310.344 199.073L310.484 197.508L311.737 194.069L312.776 191.746L313.2 189.801L314.428 188.71L315.655 187.238L317.45 186.243C317.45 186.243 318.584 184.298 318.632 184.109C318.68 183.92 318.868 181.549 318.868 181.549L319.34 180.602L319.104 178.849L319.623 176.334C319.623 176.334 320.615 173.298 320.615 173.109C320.615 172.92 321.559 171.829 321.559 171.829L322.221 169.98V167.702C322.221 167.561 322.6 165.709 322.6 165.709C322.6 165.709 323.263 164.523 323.215 164.334C323.168 164.145 323.735 162.532 323.735 162.532L323.072 160.018L322.836 158.927L324.207 157.836C324.207 157.836 324.679 154.563 324.679 154.374C324.679 154.185 324.915 151.575 325.058 151.386C325.201 151.197 326.24 148.398 326.333 148.257C326.426 148.116 327.844 145.886 327.844 145.886L328.978 144.463L330.301 142.565L331.34 141.759C331.34 141.759 332.427 140.857 332.523 140.668C332.618 140.479 333.042 139.008 333.042 138.867C333.042 138.726 332.711 136.922 332.759 136.733C332.806 136.544 332.899 135.879 333.183 135.546C333.466 135.214 335.12 134.17 335.12 134.17L336.255 133.934C336.255 133.934 337.011 133.601 337.011 133.46C337.011 133.319 336.963 131.989 337.199 131.706C337.435 131.424 337.814 131.041 338.05 130.759L338.758 129.905C338.758 129.905 339.182 128.151 339.325 128.104C339.468 128.056 340.743 127.345 340.743 127.345C340.743 127.345 341.358 125.307 341.358 125.068C341.358 124.828 341.31 123.74 341.263 123.455C341.215 123.17 341.546 122.601 341.782 122.127C342.018 121.654 342.066 121.036 342.254 120.988C342.442 120.941 343.624 120.467 343.624 120.467L343.956 116.909L345.043 114.964L345.846 113.921L346.744 113.496L347.076 112.641L347.691 112.309C347.691 112.309 347.643 110.507 347.738 110.316C347.834 110.124 348.258 109.51 348.258 109.51L347.927 107.187C347.927 107.187 348.067 106 348.163 105.715C348.258 105.431 349.014 103.392 349.014 103.249C349.014 103.105 349.533 101.067 349.581 100.641C349.629 100.215 349.629 98.0334 349.629 98.0334C349.629 98.0334 350.336 96.8946 350.479 96.7056C350.622 96.5167 351.471 95.7104 351.614 95.4736C351.757 95.2368 352.605 94.2416 352.605 94.2416C352.605 94.2416 352.746 92.1076 352.841 91.9186C352.937 91.7296 353.504 89.9257 353.928 89.452C354.352 88.9784 354.967 85.4208 354.967 85.4208C354.967 85.4208 354.588 84.282 354.543 83.8562C354.498 83.4304 353.032 81.6265 353.032 81.6265C353.032 81.6265 352.937 79.9183 353.173 79.825C353.409 79.7318 354.26 77.4063 354.355 77.2174C354.45 77.0284 354.734 75.4638 354.639 75.1791C354.543 74.8944 353.931 72.9015 353.931 72.9015C353.931 72.9015 354.498 71.5258 354.639 71.3369C354.779 71.1479 355.11 69.8201 355.11 69.8201L354.827 67.7819L355.914 67.0714L356.529 66.2173L356.433 64.7938L355.725 61.9493C355.725 61.9493 355.063 60.1478 355.11 60.0042C355.158 59.8606 355.299 58.2506 355.299 58.2506C355.299 58.2506 356.054 56.4971 356.15 56.2577C356.245 56.0184 356.669 54.4084 356.669 54.0759C356.669 53.7433 356.481 52.796 356.669 52.5591C356.857 52.3223 357.992 51.3271 357.992 51.3271C357.992 51.3271 358.087 47.8653 358.228 47.6763C358.368 47.4874 359.172 46.6333 359.362 46.3007C359.553 45.9681 360.261 43.7863 360.261 43.7863C360.261 43.7863 361.017 41.937 361.064 41.6522C361.112 41.3675 361.112 39.6593 361.252 39.3746C361.393 39.0899 362.575 37.6211 362.718 37.3817C362.861 37.1424 363.381 35.9103 363.381 35.6281C363.381 35.346 363.24 34.2525 363.24 34.2525L363.145 33.0658L364.184 31.1208L364.28 29.9341L365.981 27.3743C365.981 27.3743 366.785 26.8528 366.973 26.4723C367.161 26.0919 367.352 25.0009 367.352 24.6709C367.352 24.3408 367.683 22.3 367.731 21.9675C367.779 21.6349 367.826 20.2593 367.919 20.0224C368.012 19.7856 368.015 18.6947 368.107 18.5057C368.2 18.3167 368.675 17.4148 368.675 17.2737C368.675 17.1326 368.534 16.1827 368.579 15.8023C368.625 15.4218 368.958 14.5702 368.958 14.5702L369.526 13.575C369.526 13.575 369.997 12.5798 370.281 12.2951C370.565 12.0104 371.132 11.5368 371.132 11.5368L372.598 9.30703C372.598 9.30703 373.589 8.12035 373.542 7.59882C373.494 7.07728 373.353 4.8954 373.401 4.70644C373.449 4.51748 373.968 3.85234 374.3 3.42654C374.631 3.00075 374.204 1.67298 374.724 1.52937C375.243 1.38575 376.471 0.959961 376.471 0.959961L377.841 1.62511L379.024 3.52228L380.442 4.75431L381.953 6.50788C381.953 6.50788 382.472 8.30931 382.472 8.54615C382.472 8.78298 382.613 11.4385 382.613 11.4385L382.708 13.7615L383.276 15.0414L384.174 16.1802L384.741 17.6516L384.789 18.8383L384.41 20.6397L383.986 22.489L383.419 24.3383L383.607 26.2834L383.795 27.7547L383.559 29.2261L382.944 30.2692L382.613 31.597L382.992 33.2573L383.04 35.2956L382.708 36.5755L380.723 39.1831L379.021 40.9367L377.51 43.4033L377.794 46.8651L377.841 49.7574L377.462 51.9872L376.423 54.7385L375.715 57.0614L376.235 57.8677L376.614 59.0544L377.038 60.6668L376.423 62.7051V64.698L376.14 67.2125C376.14 67.2125 375.432 68.5402 375.384 68.6839C375.336 68.8275 374.629 69.7748 374.629 69.9638C374.629 70.1527 374.864 72.0499 374.864 72.0499L375.005 73.9949L374.769 76.4137L375.1 78.074L373.825 79.7343L372.503 81.4426L372.123 82.3445L372.171 83.5766L372.786 84.2417L373.494 85.3326L373.73 86.4715C373.73 86.4715 373.778 87.3734 373.778 87.5624C373.778 87.7514 374.345 88.6055 374.345 88.6055L374.485 89.6964L372.879 90.2179L371.461 91.1653L371.13 92.0194C371.13 92.0194 371.034 92.8256 371.034 93.2514C371.034 93.6772 371.978 94.9117 371.978 94.9117C371.978 94.9117 372.686 95.6701 372.733 95.8137C372.781 95.9573 372.781 97.4741 372.781 97.4741C372.781 97.4741 371.93 98.9908 371.93 99.2276V101.646L372.118 102.833L372.166 104.113L372.45 106.199L372.638 108.144L372.45 110.611L372.026 111.843L371.506 113.359L371.175 115.02L370.843 116.917C370.843 116.917 370.371 118.625 370.371 118.814C370.371 119.003 370.56 119.953 370.56 120.331C370.56 120.709 370.276 122.18 370.276 122.18L369.992 123.034L370.133 123.745L369.709 124.836L369.142 125.783L369.521 126.541L369.473 128.439C369.473 128.439 369.521 130.147 369.473 130.288C369.425 130.429 369.237 131.52 369.237 131.52L368.906 132.611L368.291 133.798L367.392 136.834C367.392 136.834 367.252 137.924 367.156 138.113C367.061 138.302 366.165 139.678 366.069 139.867C365.974 140.056 366.353 140.91 366.21 141.099C366.067 141.288 365.123 141.905 365.123 141.905L364.132 143.233L363.991 144.324C363.991 144.324 364.039 144.989 363.991 145.226C363.943 145.463 363.755 147.456 363.755 147.456C363.755 147.456 363.235 147.836 363.283 148.166C363.331 148.496 364.182 150.774 364.182 150.774L363.143 152.767L363.474 154.284L362.859 155.611C362.859 155.611 362.859 156.418 362.435 156.607C362.011 156.795 361.112 157.413 361.112 157.413C361.112 157.413 360.971 158.408 360.971 158.552C360.971 158.695 361.019 159.217 361.019 159.406C361.019 159.595 361.443 160.97 361.443 160.97L361.632 162.583L361.16 164.954C361.16 164.954 360.404 165.238 360.025 165.664C359.646 166.09 358.702 166.281 358.702 166.281L358.04 166.755L356.812 167.609C356.812 167.609 356.057 168.937 356.057 169.081C356.057 169.224 355.206 170.882 355.206 170.882C355.206 170.882 354.071 171.167 353.835 171.403C353.599 171.64 352.796 172.351 352.796 172.351L350.811 173.774C350.811 173.774 349.867 173.915 349.629 174.485C349.39 175.054 348.542 176.999 348.542 176.999C348.542 176.999 348.07 177.664 347.502 178.138C346.935 178.612 345.944 178.896 345.848 179.181C345.753 179.466 344.666 180.461 344.666 180.461L343.722 181.315L342.4 182.169L340.793 184.54C340.793 184.54 339.802 185.964 339.566 186.248C339.33 186.533 338.81 188.241 338.81 188.241L339.234 190.327C339.234 190.327 340.085 192.794 340.085 193.031C340.085 193.268 339.945 193.933 339.945 194.122C339.945 194.311 339.613 195.449 339.473 195.83C339.332 196.21 338.574 197.017 338.574 197.017L337.631 198.818L337.678 200.619C337.678 200.619 338.293 201.426 338.198 201.663C338.102 201.899 337.678 203.134 337.583 203.275C337.487 203.416 337.442 205.22 337.442 205.553C337.442 205.885 337.631 207.165 337.678 207.354C337.726 207.543 338.102 210.199 338.102 210.199C338.102 210.199 339.33 211.907 339.473 212.096C339.616 212.285 340.984 214.703 340.984 214.703L342.023 217.739L342.59 220.395L343.394 222.196C343.394 222.196 344.056 223.287 343.961 223.476C343.865 223.665 343.961 225.041 343.961 225.041L344.009 227.271L344.952 229.168C344.952 229.168 345.472 230.496 345.472 230.685C345.472 230.874 345.331 232.723 345.331 232.723L345.143 235.237C345.143 235.237 345.003 238.225 345.003 238.414C345.003 238.603 345.57 239.931 345.57 239.931C345.57 239.931 345.522 241.118 345.57 241.402C345.617 241.687 346.042 242.874 346.042 242.874L347.508 245.056L348.878 245.673L349.681 246.242C349.681 246.242 349.777 247.238 349.777 247.381C349.777 247.525 349.541 249.042 349.541 249.042L349.209 251.176L349.114 253.121L349.493 254.733L349.872 257.056L349.967 258.573C349.967 258.573 350.108 259.759 350.063 259.901C350.018 260.042 350.11 260.566 350.158 260.991C350.206 261.417 350.018 261.561 350.254 261.987C350.489 262.412 351.245 263.458 351.245 263.458C351.245 263.458 352.472 269.386 352.568 269.575C352.663 269.764 353.75 271.047 353.702 271.236C353.655 271.425 353.702 272.375 353.798 272.659C353.893 272.944 354.46 273.987 354.46 273.987C354.46 273.987 354.792 275.03 354.839 275.647C354.887 276.265 355.123 276.786 355.311 277.023C355.5 277.26 356.162 279.822 356.162 279.822V282.573C356.162 282.573 355.738 284.755 355.643 284.992C355.547 285.229 355.502 287.791 355.502 287.791C355.502 287.791 355.502 288.93 355.361 289.167C355.221 289.404 355.266 289.5 354.606 289.784C353.946 290.069 350.166 290.59 350.166 290.59L345.818 291.918C345.818 291.918 345.251 294.1 345.156 294.574C345.06 295.047 343.737 300.835 343.737 300.835L342.887 305.007C342.887 305.007 343.266 308.136 343.266 308.612C343.266 309.089 341.659 311.837 341.471 312.218C341.283 312.598 341.092 314.589 341.092 314.589C341.092 314.589 341.564 318.479 341.847 319.522C342.131 320.565 341.376 321.419 341.564 322.273C341.752 323.127 343.737 325.024 343.737 325.024L342.982 325.783" stroke="#B2A89C" stroke-miterlimit="10"/>
<path d="M284.945 300.255L281.732 300.159L278.614 299.116L275.59 299.021C275.59 299.021 273.888 299.779 273.133 299.59C272.377 299.401 270.487 298.643 270.203 298.547C269.92 298.451 267.369 297.977 267.369 297.977C267.369 297.977 265.951 298.736 265.384 298.736C264.817 298.736 262.267 298.071 262.267 298.071L260.66 296.554L258.675 293.803C258.675 293.803 255.934 290.862 255.366 290.389C254.799 289.915 252.626 288.207 252.437 287.922C252.249 287.638 251.586 285.929 251.586 285.929L251.965 283.558L252.909 279.479L251.965 273.125C251.965 273.125 252.344 270.185 252.344 269.9C252.344 269.616 252.061 266.96 251.872 266.295C251.684 265.63 250.833 263.45 250.929 263.07C251.024 262.69 251.308 260.792 251.308 260.792L250.552 256.62C250.552 256.62 249.89 255.481 249.797 255.008C249.704 254.534 250.74 252.541 250.74 252.541L250.457 250.074L250.269 244.763C250.269 244.763 249.325 244.668 249.041 243.72C248.758 242.773 244.126 244.385 244.126 244.385L239.874 242.773C239.874 242.773 238.363 241.541 238.74 240.972C239.116 240.402 242.141 237.651 242.141 237.651C242.141 237.651 244.975 234.9 245.354 234.615C245.733 234.33 246.205 230.82 246.205 230.82C246.205 230.82 244.219 228.734 245.261 227.5C246.303 226.265 247.435 226.361 248.286 224.464C249.137 222.567 249.229 221.05 249.041 220.765C248.853 220.48 248.569 220.954 247.056 217.825C245.542 214.696 244.506 213.461 244.506 213.461V209.763C244.506 209.763 245.356 207.203 245.073 207.107C244.789 207.011 243.562 206.727 243.562 206.727L239.97 207.296C239.97 207.296 238.459 208.339 238.08 208.435C237.701 208.531 235.151 209.289 235.151 209.289C235.151 209.289 232.126 207.961 231.842 207.865C231.559 207.77 229.385 207.961 229.385 207.961C229.385 207.961 225.889 208.626 225.038 208.72C224.187 208.813 221.729 207.296 220.597 206.918C219.465 206.54 218.328 205.971 217.573 206.253C216.817 206.535 214.455 207.865 214.455 207.865H211.81C211.81 207.865 211.147 207.961 210.771 205.872C210.394 203.784 209.636 203.217 209.352 203.028C209.069 202.839 208.313 202.27 207.462 200.846C206.611 199.423 205.856 198.853 206.423 196.482C206.99 194.112 206.707 193.068 207.462 191.456C208.218 189.844 209.257 188.042 209.257 188.042C209.257 188.042 206.8 181.118 206.895 180.834C206.99 180.549 205.856 178.748 204.438 178.463C203.02 178.178 200.562 177.324 199.618 177.609C198.675 177.894 198.484 177.989 197.728 178.178C196.973 178.367 191.682 178.937 190.452 179.032C189.222 179.128 186.012 177.609 186.012 177.609L183.742 177.039L181.852 174.669L176.089 173.91L176.752 171.917C176.752 171.917 176.94 170.685 175.901 170.116C174.862 169.546 172.309 169.546 173.444 167.934C174.578 166.322 175.05 165.656 175.334 165.278C175.617 164.901 176.468 163.192 176.468 163.192L176.28 157.69L176.564 155.13L177.982 153.137L176.471 150.955C176.471 150.955 176.375 150.29 175.527 149.723C174.679 149.156 174.016 147.637 173.258 146.972C172.5 146.307 170.708 145.455 170.708 145.455L168.439 143.654L165.414 140.618C165.414 140.618 164.752 138.532 165.131 138.247C165.51 137.962 167.919 136.148 167.871 135.591C167.824 135.034 167.871 132.84 167.871 132.555C167.871 132.271 167.209 128.857 167.209 128.857L164.468 128.098L161.822 128.383L160.595 130.28C160.595 130.28 159.367 130.85 158.517 131.039C157.666 131.228 157.666 130.754 156.438 130.658C155.211 130.562 153.697 130.278 153.697 130.278L152.563 128.476L146.8 127.433C146.8 127.433 145.572 127.433 143.87 126.768C142.169 126.103 137.917 122.878 137.917 122.878L138.012 120.696L139.147 119.368L138.579 116.143L139.335 112.918L139.43 111.21C139.43 111.21 139.242 108.839 139.242 108.555C139.242 108.27 138.863 107.038 139.054 105.995C139.244 104.952 137.731 103.717 137.731 103.717L135.369 100.588L133.858 99.8297L131.78 97.2699L134.33 92.4324L131.968 91.4851L130.55 92.3392L128.755 93.7627C128.755 93.7627 127.149 93.3823 126.77 93.3823C126.391 93.3823 126.486 92.9086 125.542 92.9086C124.598 92.9086 123.085 93.7627 123.085 93.7627L122.046 95.3752C122.046 95.3752 121.29 96.6072 120.723 96.7987C120.156 96.9902 119.588 96.6098 119.779 97.5571C119.97 98.5044 119.495 98.6959 120.723 99.9279C121.95 101.16 123.273 102.964 123.273 102.964C123.273 102.964 122.894 103.722 122.801 104.387C122.708 105.053 124.691 108.182 124.691 108.182L125.163 112.165L125.73 114.725L126.202 118.615L127.241 120.323L127.997 121.936L128.941 124.78L128.469 129.429L126.483 135.405L123.554 138.156L122.136 141.381C122.136 141.381 119.867 139.58 119.586 139.484C119.305 139.388 117.317 138.252 117.317 138.252L113.916 136.07L112.405 139.106L112.688 141.573L111.177 142.142L109.95 142.238L108.343 143.565L109.006 145.178L111.18 147.549L111.652 149.257L110.141 150.774L107.211 151.628L105.793 153.81L105.981 156.654L105.602 161.396L106.453 164.81L107.021 167.276L104.942 169.836L99.6511 173.25L94.1692 172.776C94.1692 172.776 90.2008 171.449 90.0125 171.164C89.8243 170.879 88.2179 168.793 88.2179 168.793L86.7997 164.999L85.2887 163.575L84.1541 164.523C84.1541 164.523 83.3986 166.324 83.0196 166.324C82.6406 166.324 80.6576 166.609 80.5622 166.324C80.4669 166.039 80.4669 163.857 80.1832 163.48C79.8996 163.102 79.1441 162.152 78.8604 161.867C78.5768 161.582 76.7821 160.635 76.7821 160.635L74.0412 160.066L72.3394 162.817L69.6938 164.999L67.7083 166.896C67.7083 166.896 64.9674 169.267 65.1581 169.552C65.3489 169.836 67.4272 172.965 67.5201 173.631C67.613 174.296 67.0482 175.812 67.0482 175.812L66.009 179.892L68.6546 183.782L68.75 186.818V190.327L67.0482 196.681L60.7179 199.052L52.9694 200C52.9694 200 49.001 198.387 48.7174 198.483C48.4337 198.579 45.5045 198.863 45.5045 198.863L37.0934 200.665L33.0296 203.794L30.7605 201.138L29.1541 197.913L26.4132 197.344L25.2786 199.811L20.364 206.26L18.7575 206.83L13.4664 206.545L10.1581 209.201L6.8499 211.952L1.74699 213.753L1.17972 216.883L0.896088 221.246L4.39257 228.644L7.32179 229.591L12.8037 230.16L18.7575 232.438L18.3785 235.948L20.4568 238.699L19.6059 240.785L18.3785 245.718V250.84L16.3931 252.453L13.4639 255.108L12.1411 257.29L8.64458 259.568L8.45633 262.223L6.66165 264.025L5.62249 265.257L3.63705 270.094L2.12601 272.372L3.26055 275.027L4.86697 278.252L2.97691 282.425L3.73243 286.788L4.39508 290.298C4.39508 290.298 4.2997 293.903 4.2997 294.188C4.2997 294.473 4.20432 296.559 4.58334 297.509C4.96235 298.459 5.71787 299.406 5.71787 299.406L4.86697 304.055L5.71787 305.193L7.3243 304.72C7.3243 304.72 8.55171 304.909 8.55171 304.624C8.55171 304.339 8.93073 303.011 8.93073 303.011C8.93073 303.011 10.6325 301.779 10.9162 301.779C11.1998 301.779 12.239 301.21 12.239 301.21L13.1827 299.217L13.0874 297.035L13.8429 295.423L17.3394 294.853L19.8896 294.949L20.2686 293.241C21.2124 293.052 24.0487 293.526 24.0487 293.526L26.9779 293.43L30.758 292.006L35.1054 291.817C35.3891 290.774 36.1446 286.884 36.1446 286.884L39.1692 285.176L41.0592 286.504L42.5703 290.676C42.5703 290.676 44.6486 291.908 44.744 292.288C44.8394 292.669 47.2942 294.659 47.6732 294.755C48.0522 294.851 50.4142 294.659 50.4142 294.659C50.4142 294.659 52.7761 294.659 52.9644 296.083C53.1526 297.506 56.3655 298.549 56.3655 298.549C56.3655 298.549 57.8765 297.791 58.1601 297.602C58.4438 297.413 61.5612 299.404 61.5612 299.404L64.5858 298.549L66.5713 297.695L65.9086 296.368L64.2068 295.513L66.3805 294.09C66.9478 294.375 68.8379 296.083 68.8379 296.083L71.3881 296.937L74.0336 295.609L75.1682 297.602L76.2073 298.834L80.9312 298.454L83.6722 297.98L87.7359 299.023C87.7359 299.023 93.3107 297.884 93.5944 297.98C93.878 298.076 95.2008 298.265 95.8635 298.738C96.5261 299.212 100.211 300.54 100.211 300.54L100.494 302.578L100.919 305.707L98.9332 309.691L102.761 311.968L102.194 315.097L103.753 316.377L105.171 318.796L105.03 322.923L106.448 326.622L107.016 330.036L105.03 333.024L105.738 335.868L106.162 338.997L104.036 342.127C104.036 342.127 104.177 342.696 104.32 343.691C104.463 344.686 106.729 346.964 106.729 346.964L113.675 346.823L117.786 346.682L122.605 347.392L123.03 349.526C123.03 349.526 122.462 351.519 122.179 352.799C121.895 354.079 119.629 358.206 119.629 358.206L120.336 359.771C120.336 359.771 120.477 362.474 120.477 362.9V367.311V370.725V374.993L119.626 376.702L120.617 380.259C120.617 380.259 121.609 382.819 122.036 383.958C122.462 385.096 124.305 385.381 124.729 385.381C125.153 385.381 128.557 384.101 128.557 384.101L133.376 382.393L136.637 380.4L142.59 381.68C142.59 381.68 144.149 379.972 144.576 380.257C145.003 380.541 150.813 381.68 151.097 382.391C151.381 383.101 151.948 384.809 151.948 384.809L157.475 386.802C157.475 386.802 160.735 388.651 161.019 389.08C161.303 389.508 164.847 393.063 164.847 393.063L166.406 394.771C166.406 394.771 164.704 398.47 165.271 399.183C165.838 399.896 167.257 401.032 167.257 401.032L171.225 403.31L177.603 406.583L183.13 406.442L185.115 409.571C185.115 409.571 184.832 410.281 185.115 410.994C185.399 411.707 187.525 414.124 187.525 414.124H190.786L193.055 416.116L194.33 418.25C194.754 418.961 196.599 419.959 196.599 419.959L200.284 420.813C200.284 420.813 203.828 421.808 203.968 422.236C204.109 422.665 203.401 423.801 204.393 425.224C205.384 426.648 207.794 429.208 207.794 429.208L212.189 435.325L213.607 438.028L216.584 439.737L218.143 439.026C218.143 439.026 221.26 438.741 221.687 438.885C222.113 439.029 222.538 438.6 223.389 439.311C224.239 440.021 225.939 440.875 225.939 440.875C225.939 440.875 227.924 442.014 228.773 442.725C229.621 443.435 233.876 444.859 234.016 445.713C234.157 446.567 234.016 448.557 234.016 448.557L234.724 452.4C234.724 452.4 236.709 455.244 237.274 455.814C237.839 456.383 240.959 457.522 240.959 457.522L242.944 461.505L246.913 465.632L247.053 469.615C247.053 469.615 243.225 472.46 242.942 473.173C242.658 473.886 240.956 475.022 240.392 475.733C239.827 476.443 235.713 480.711 235.713 480.711C235.713 480.711 231.601 481.991 231.885 482.704C232.169 483.417 233.444 484.412 233.727 484.982C234.011 485.551 235.286 486.12 235.286 486.12L237.836 485.125L238.828 486.405L237.693 488.539L234.149 490.388L239.96 492.807L241.945 495.085C241.945 495.085 242.229 495.511 241.805 496.365C241.381 497.219 238.544 499.209 238.544 499.209C239.252 502.054 240.53 502.482 241.237 502.908C241.945 503.334 242.229 503.477 244.071 504.188C245.914 504.898 248.323 505.896 248.323 505.896L255.412 506.891C255.412 506.891 258.389 509.451 261.933 512.298C265.477 515.145 264.342 513.863 265.477 515.142C266.611 516.422 278.233 525.813 278.233 525.813L282.769 525.102C282.769 525.102 286.737 526.667 287.447 526.951C288.158 527.236 292.407 526.951 292.407 526.951L300.771 526.241L303.748 527.664L308.426 529.088L313.386 527.808L314.521 526.528H317.922L326.285 524.535L332.239 524.394H334.932C334.932 524.394 336.207 524.253 336.35 523.684C336.493 523.114 338.476 522.119 338.476 522.119L343.863 523.258L348.399 524.822L349.533 525.676L354.212 526.672L354.779 523.827L355.63 521.124L358.18 521.408C358.18 521.408 358.18 521.55 359.315 521.124C360.449 520.698 360.59 520.839 361.441 519.844C362.292 518.849 363.71 517.284 363.71 517.284C363.71 517.284 363.002 515.719 362.859 515.291C362.716 514.863 361.867 513.014 361.867 513.014L363.002 510.025C363.002 510.025 363.71 509.741 362.578 508.176L361.443 506.611C361.443 506.611 359.601 505.757 361.019 505.047C362.437 504.336 366.122 503.339 366.122 503.339C367.397 503.764 370.941 503.764 370.941 503.764L371.792 504.76C371.792 504.76 373.635 502.767 373.067 502.2C372.5 501.633 370.941 500.066 370.517 499.781C370.093 499.496 369.666 498.501 368.248 497.932C366.83 497.362 365.698 496.937 365.698 496.937L366.549 495.657C366.549 495.657 369.666 492.099 370.233 492.099C370.801 492.099 371.935 491.53 373.067 491.53C374.199 491.53 377.887 490.96 377.887 490.96L379.729 486.977C379.729 486.977 378.454 486.692 379.305 485.838C380.156 484.984 381.714 485.128 381.714 485.128L383.416 485.697L385.402 484.987L385.542 479.01L387.952 477.872C387.952 477.872 389.086 478.013 389.511 478.013C389.935 478.013 390.502 477.302 390.502 477.302C390.502 477.302 390.786 477.161 390.926 475.453C391.067 473.745 391.067 472.608 391.35 472.039L395.745 471.185L398.722 471.47C398.722 471.47 398.582 471.185 399.714 470.9C400.846 470.616 405.1 468.056 405.1 468.056L410.344 463.503L408.785 458.24C408.785 458.24 407.934 456.106 408.077 455.536C408.22 454.967 410.203 452.548 410.203 452.548L408.928 450.414V447.426L411.054 443.869C411.054 443.869 409.779 442.16 409.779 441.735C409.779 441.309 411.054 439.457 411.054 439.457L412.189 437.749L414.031 435.899L419.275 431.203L420.55 430.918L422.392 429.21C422.392 429.21 422.252 426.65 422.816 426.507C423.381 426.363 424.234 426.366 424.659 426.081C425.083 425.796 426.077 425.94 426.501 425.37C426.925 424.801 426.785 424.66 427.636 423.806C428.486 422.952 429.194 422.098 429.194 422.098C429.194 422.098 430.896 421.102 431.32 420.674C431.744 420.246 431.744 420.248 432.171 419.679C432.598 419.11 434.014 414.842 434.014 414.842L435.572 408.581L434.721 406.731L437.555 401.753L437.131 398.624C437.131 398.624 435.713 397.344 436.564 396.064C437.415 394.784 440.108 392.222 440.108 392.222L440.392 389.944L437.982 386.671C437.982 386.671 436.14 384.963 436.423 383.542C436.707 382.121 437.415 381.408 437.982 378.989C438.549 376.57 437.415 373.582 436.847 372.444C436.28 371.305 436.28 369.171 436.28 369.171C436.28 369.171 437.555 367.463 437.131 365.898C436.707 364.333 435.146 363.479 436.423 362.484C437.701 361.489 437.841 360.919 438.409 361.06C438.976 361.202 440.678 361.06 441.242 361.915C441.807 362.769 446.486 366.183 446.486 366.183L451.446 368.176C451.446 368.176 452.437 370.31 452.864 371.02C453.291 371.731 455.133 374.719 455.557 375.573C455.981 376.427 457.003 376.684 458.391 377.707C459.779 378.73 460.941 378.702 460.941 378.702L468.17 382.116L473.414 384.535C473.414 384.535 474.972 383.396 475.399 382.97C475.826 382.544 476.817 382.26 476.958 381.546C477.098 380.833 476.955 379.964 477.098 378.843C477.241 377.722 476.391 376.424 475.964 375.57C475.537 374.716 475.113 373.721 475.256 373.293C475.399 372.864 475.54 372.582 476.107 371.869C476.674 371.156 476.815 369.309 476.815 369.309V366.321L476.531 364.757C476.531 364.757 474.689 360.345 474.689 359.919C474.689 359.493 472.563 356.362 472.846 355.508C473.13 354.653 476.674 350.385 476.815 349.816C476.955 349.247 475.823 348.108 475.54 347.397C475.256 346.687 474.548 345.12 474.548 345.12C474.548 345.12 476.674 343.981 475.115 343.411C473.557 342.842 471.998 342.986 471.714 342.132C471.431 341.277 468.737 339.713 468.313 338.718C467.889 337.722 477.385 339.856 477.385 339.856L484.046 337.012L485.748 335.304L492.693 334.165L495.67 330.466L496.662 329.328L498.363 326.909C498.363 326.909 499.355 325.06 499.071 324.631C498.788 324.203 497.513 321.074 497.513 321.074L496.945 318.086L495.811 316.377L494.536 314.384L492.55 311.396C492.55 311.396 488.582 309.403 488.582 308.123C488.582 306.844 489.433 304.14 489.433 304.14L487.164 303.145C487.164 303.145 486.739 302.86 485.605 303.43C484.47 303.999 481.92 304.284 481.92 304.284C481.92 304.284 481.92 304.71 478.092 303.858C474.265 303.006 471.998 302.293 471.998 302.293C471.998 302.293 471.007 302.434 470.296 302.863C469.586 303.291 463.775 304.143 463.775 304.143L457.254 304.002L452.718 303.006C452.718 303.006 451.017 301.868 449.458 302.152C447.899 302.437 448.183 302.437 446.197 302.011C444.212 301.585 443.22 300.588 441.802 299.877C440.384 299.167 440.1 298.738 437.974 298.738C435.848 298.738 434.714 297.458 433.579 298.738C432.445 300.018 431.737 301.442 431.737 301.442C431.737 301.442 432.728 303.435 429.895 305.569C427.061 307.703 425.643 308.413 425.643 308.413L421.674 309.408L416.431 309.55L411.752 307.7C411.752 307.7 411.611 305.992 409.767 305.566C407.922 305.14 404.664 304.143 403.389 304.143C402.113 304.143 396.727 303.147 396.16 303.432C395.592 303.717 390.349 303.717 390.349 303.717L372.206 301.724L367.671 307.131L364.977 310.119C364.977 310.119 362.427 313.961 362.001 314.246C361.574 314.531 360.914 315.621 360.914 315.621L359.779 310.88C359.779 310.88 357.038 309.267 356.945 308.983C356.852 308.698 355.434 304.904 355.434 304.904C355.434 304.904 354.395 302.059 354.395 301.583C354.395 301.107 355.623 298.358 355.623 298.358C355.623 298.358 355.527 295.418 355.527 295.133C355.527 294.848 356.85 292.855 356.85 292.855L355.339 289.157" stroke="#B2A89C" stroke-miterlimit="10"/>
<path d="M383.788 293.175L378.496 294.03L372.543 294.695L367.344 294.125C367.344 294.125 364.982 293.745 364.511 293.271L362.241 290.994L359.312 288.623C359.312 288.623 359.124 287.391 359.312 286.252C359.5 285.113 359.408 283.407 359.408 283.407C359.408 283.407 358.464 281.891 358.18 281.51C357.897 281.13 356.15 279.85 356.15 279.85" stroke="#B2A89C" stroke-miterlimit="10"/>
<path d="M288.441 277.24L291.275 275.058L292.693 272.022C292.693 272.022 292.41 270.029 292.41 269.555C292.41 269.082 292.505 266.235 292.505 266.235C292.505 266.235 292.033 264.433 292.789 263.768C293.544 263.103 295.53 262.536 295.53 262.536C295.53 262.536 296.852 261.967 297.324 261.304C297.796 260.641 298.742 258.837 298.742 258.837L300.444 257.129L301.483 253.524L301.104 250.773C301.104 250.773 302.615 249.256 302.144 248.306C301.672 247.356 301.009 245.65 301.009 245.65L301.481 242.425C301.481 242.425 301.669 240.813 301.86 240.528C302.051 240.244 303.845 239.581 303.938 239.296C304.031 239.012 305.073 237.114 305.073 237.114L306.16 236.308" stroke="#B2A89C" stroke-miterlimit="10"/>
</g>
<defs>
<clipPath id="clip0_101_699">
<rect width="500" height="530" fill="white"/>
</clipPath>
</defs>
</svg>
